<svg xmlns="http://www.w3.org/2000/svg" width="1024" height="1024" fill="none" viewBox="0 0 1024 1024" id="to-do"><rect width="690" height="690" x="167" y="167" fill="#fff" rx="100"></rect><g filter="url(#filter0_diii_37_283)"><path fill="#0080FF" d="M481.062 697.111L550.025 628.014C557.832 620.184 557.832 607.505 550.025 599.675L367.606 416.908C359.799 409.078 347.131 409.078 339.324 416.908L270.361 486.005C262.554 493.835 262.554 506.514 270.361 514.344L452.78 697.111C460.587 704.941 473.244 704.941 481.062 697.111Z"></path><path fill="url(#paint0_linear_37_283)" d="M481.062 697.111L550.025 628.014C557.832 620.184 557.832 607.505 550.025 599.675L367.606 416.908C359.799 409.078 347.131 409.078 339.324 416.908L270.361 486.005C262.554 493.835 262.554 506.514 270.361 514.344L452.78 697.111C460.587 704.941 473.244 704.941 481.062 697.111Z"></path><path fill="url(#paint1_linear_37_283)" fill-opacity=".7" d="M481.062 697.111L550.025 628.014C557.832 620.184 557.832 607.505 550.025 599.675L367.606 416.908C359.799 409.078 347.131 409.078 339.324 416.908L270.361 486.005C262.554 493.835 262.554 506.514 270.361 514.344L452.78 697.111C460.587 704.941 473.244 704.941 481.062 697.111Z"></path></g><g filter="url(#filter1_diii_37_283)"><path fill="#00C2FF" d="M453.365 697.608L383.356 627.464C375.83 619.926 375.83 607.709 383.356 600.171L645.357 337.653C652.884 330.115 665.079 330.115 672.594 337.653L742.602 407.796C750.129 415.334 750.129 427.551 742.602 435.089L480.601 697.608C473.086 705.134 460.891 705.134 453.365 697.608Z"></path><path fill="url(#paint2_linear_37_283)" d="M453.365 697.608L383.356 627.464C375.83 619.926 375.83 607.709 383.356 600.171L645.357 337.653C652.884 330.115 665.079 330.115 672.594 337.653L742.602 407.796C750.129 415.334 750.129 427.551 742.602 435.089L480.601 697.608C473.086 705.134 460.891 705.134 453.365 697.608Z"></path><path fill="url(#paint3_linear_37_283)" fill-opacity=".7" d="M453.365 697.608L383.356 627.464C375.83 619.926 375.83 607.709 383.356 600.171L645.357 337.653C652.884 330.115 665.079 330.115 672.594 337.653L742.602 407.796C750.129 415.334 750.129 427.551 742.602 435.089L480.601 697.608C473.086 705.134 460.891 705.134 453.365 697.608Z"></path></g><defs><linearGradient id="paint0_linear_37_283" x1="410.416" x2="410.416" y1="306.188" y2="638.106" gradientUnits="userSpaceOnUse"><stop offset=".005" stop-color="#fff" stop-opacity=".08"></stop><stop offset=".085" stop-opacity=".08"></stop><stop offset=".337" stop-color="#fff" stop-opacity=".1"></stop><stop offset=".661" stop-color="#fff" stop-opacity=".1"></stop><stop offset="1" stop-opacity=".1"></stop></linearGradient><linearGradient id="paint1_linear_37_283" x1="410.193" x2="410.193" y1="411.035" y2="702.984" gradientUnits="userSpaceOnUse"><stop stop-color="#0080FF"></stop><stop offset="1" stop-color="#fff" stop-opacity="0"></stop></linearGradient><linearGradient id="paint2_linear_37_283" x1="563.263" x2="563.263" y1="198.673" y2="620.752" gradientUnits="userSpaceOnUse"><stop offset=".005" stop-color="#fff" stop-opacity=".08"></stop><stop offset=".085" stop-opacity=".08"></stop><stop offset=".337" stop-color="#fff" stop-opacity=".1"></stop><stop offset=".661" stop-color="#fff" stop-opacity=".1"></stop><stop offset="1" stop-opacity=".1"></stop></linearGradient><linearGradient id="paint3_linear_37_283" x1="562.979" x2="562.979" y1="332" y2="703.252" gradientUnits="userSpaceOnUse"><stop stop-color="#00C2FF"></stop><stop offset="1" stop-color="#fff" stop-opacity="0"></stop></linearGradient><filter id="filter0_diii_37_283" width="331.375" height="335.412" x="244.506" y="401.035" color-interpolation-filters="sRGB" filterUnits="userSpaceOnUse"><feFlood flood-opacity="0" result="BackgroundImageFix"></feFlood><feColorMatrix in="SourceAlpha" result="hardAlpha" values="0 0 0 0 0 0 0 0 0 0 0 0 0 0 0 0 0 0 127 0"></feColorMatrix><feOffset dy="13.462"></feOffset><feGaussianBlur stdDeviation="10"></feGaussianBlur><feColorMatrix values="0 0 0 0 0 0 0 0 0 0.501961 0 0 0 0 1 0 0 0 0.6 0"></feColorMatrix><feBlend in2="BackgroundImageFix" result="effect1_dropShadow_37_283"></feBlend><feBlend in="SourceGraphic" in2="effect1_dropShadow_37_283" result="shape"></feBlend><feColorMatrix in="SourceAlpha" result="hardAlpha" values="0 0 0 0 0 0 0 0 0 0 0 0 0 0 0 0 0 0 127 0"></feColorMatrix><feOffset dy="20.19"></feOffset><feGaussianBlur stdDeviation="45"></feGaussianBlur><feComposite in2="hardAlpha" k2="-1" k3="1" operator="arithmetic"></feComposite><feColorMatrix values="0 0 0 0 0 0 0 0 0 0.501961 0 0 0 0 1 0 0 0 0.6 0"></feColorMatrix><feBlend in2="shape" result="effect2_innerShadow_37_283"></feBlend><feColorMatrix in="SourceAlpha" result="hardAlpha" values="0 0 0 0 0 0 0 0 0 0 0 0 0 0 0 0 0 0 127 0"></feColorMatrix><feOffset dy="15"></feOffset><feGaussianBlur stdDeviation="6.5"></feGaussianBlur><feComposite in2="hardAlpha" k2="-1" k3="1" operator="arithmetic"></feComposite><feColorMatrix values="0 0 0 0 1 0 0 0 0 1 0 0 0 0 1 0 0 0 0.3 0"></feColorMatrix><feBlend in2="effect2_innerShadow_37_283" result="effect3_innerShadow_37_283"></feBlend><feColorMatrix in="SourceAlpha" result="hardAlpha" values="0 0 0 0 0 0 0 0 0 0 0 0 0 0 0 0 0 0 127 0"></feColorMatrix><feOffset dy="-10"></feOffset><feGaussianBlur stdDeviation="7"></feGaussianBlur><feComposite in2="hardAlpha" k2="-1" k3="1" operator="arithmetic"></feComposite><feColorMatrix values="0 0 0 0 1 0 0 0 0 1 0 0 0 0 1 0 0 0 0.25 0"></feColorMatrix><feBlend in2="effect3_innerShadow_37_283" result="effect4_innerShadow_37_283"></feBlend></filter><filter id="filter1_diii_37_283" width="410.536" height="414.715" x="357.711" y="322" color-interpolation-filters="sRGB" filterUnits="userSpaceOnUse"><feFlood flood-opacity="0" result="BackgroundImageFix"></feFlood><feColorMatrix in="SourceAlpha" result="hardAlpha" values="0 0 0 0 0 0 0 0 0 0 0 0 0 0 0 0 0 0 127 0"></feColorMatrix><feOffset dy="13.462"></feOffset><feGaussianBlur stdDeviation="10"></feGaussianBlur><feColorMatrix values="0 0 0 0 0 0 0 0 0 0.760784 0 0 0 0 1 0 0 0 0.6 0"></feColorMatrix><feBlend in2="BackgroundImageFix" result="effect1_dropShadow_37_283"></feBlend><feBlend in="SourceGraphic" in2="effect1_dropShadow_37_283" result="shape"></feBlend><feColorMatrix in="SourceAlpha" result="hardAlpha" values="0 0 0 0 0 0 0 0 0 0 0 0 0 0 0 0 0 0 127 0"></feColorMatrix><feOffset dy="20.19"></feOffset><feGaussianBlur stdDeviation="45"></feGaussianBlur><feComposite in2="hardAlpha" k2="-1" k3="1" operator="arithmetic"></feComposite><feColorMatrix values="0 0 0 0 0 0 0 0 0 0.760784 0 0 0 0 1 0 0 0 0.6 0"></feColorMatrix><feBlend in2="shape" result="effect2_innerShadow_37_283"></feBlend><feColorMatrix in="SourceAlpha" result="hardAlpha" values="0 0 0 0 0 0 0 0 0 0 0 0 0 0 0 0 0 0 127 0"></feColorMatrix><feOffset dy="15"></feOffset><feGaussianBlur stdDeviation="6.5"></feGaussianBlur><feComposite in2="hardAlpha" k2="-1" k3="1" operator="arithmetic"></feComposite><feColorMatrix values="0 0 0 0 1 0 0 0 0 1 0 0 0 0 1 0 0 0 0.3 0"></feColorMatrix><feBlend in2="effect2_innerShadow_37_283" result="effect3_innerShadow_37_283"></feBlend><feColorMatrix in="SourceAlpha" result="hardAlpha" values="0 0 0 0 0 0 0 0 0 0 0 0 0 0 0 0 0 0 127 0"></feColorMatrix><feOffset dy="-10"></feOffset><feGaussianBlur stdDeviation="7"></feGaussianBlur><feComposite in2="hardAlpha" k2="-1" k3="1" operator="arithmetic"></feComposite><feColorMatrix values="0 0 0 0 1 0 0 0 0 1 0 0 0 0 1 0 0 0 0.25 0"></feColorMatrix><feBlend in2="effect3_innerShadow_37_283" result="effect4_innerShadow_37_283"></feBlend></filter></defs></svg>